<svg
  xmlns="http://www.w3.org/2000/svg"
  viewBox="0 0 24 24"
  width="24"
  height="24"
>
  <path d="M19.33 20.5h-3.18A1.17 1.17 0 0 1 15 19.33v-3.18A1.17 1.17 0 0 1 16.15 15h3.18a1.17 1.17 0 0 1 1.17 1.17v3.18a1.17 1.17 0 0 1-1.17 1.15zM16.15 16a.16.16 0 0 0-.17.17v3.18a.16.16 0 0 0 .17.17h3.18a.17.17 0 0 0 .17-.17v-3.2a.17.17 0 0 0-.17-.17zm-2.67 4.5h-3a1.17 1.17 0 0 1-1.17-1.17v-3.18A1.17 1.17 0 0 1 10.52 15h3a1.17 1.17 0 0 1 1.17 1.17v3.18a1.17 1.17 0 0 1-1.21 1.15zm-3-4.52a.17.17 0 0 0-.17.17v3.18a.17.17 0 0 0 .17.17h3a.17.17 0 0 0 .17-.17v-3.18a.17.17 0 0 0-.17-.17zM7.85 20.5H4.67a1.17 1.17 0 0 1-1.17-1.17v-3.18A1.17 1.17 0 0 1 4.67 15h3.18A1.17 1.17 0 0 1 9 16.15v3.18a1.17 1.17 0 0 1-1.15 1.17zM4.67 16a.17.17 0 0 0-.17.17v3.18a.17.17 0 0 0 .17.17h3.18a.16.16 0 0 0 .15-.19v-3.18a.16.16 0 0 0-.15-.15zm14.66-1.33h-3.18A1.17 1.17 0 0 1 15 13.48v-3a1.17 1.17 0 0 1 1.17-1.17h3.18a1.17 1.17 0 0 1 1.17 1.17v3a1.17 1.17 0 0 1-1.19 1.17zm-3.18-4.3a.17.17 0 0 0-.17.17v3a.17.17 0 0 0 .17.17h3.18a.18.18 0 0 0 .17-.17v-3a.18.18 0 0 0-.17-.17zm-2.67 4.3h-3a1.18 1.18 0 0 1-1.17-1.17v-3a1.18 1.18 0 0 1 1.17-1.17h3a1.18 1.18 0 0 1 1.17 1.17v3a1.18 1.18 0 0 1-1.17 1.15zm-3-4.3a.18.18 0 0 0-.17.17v3a.18.18 0 0 0 .17.17h3a.18.18 0 0 0 .17-.17v-3a.18.18 0 0 0-.17-.17zm-2.67 4.3H4.67a1.17 1.17 0 0 1-1.17-1.19v-3a1.17 1.17 0 0 1 1.17-1.13h3.18A1.17 1.17 0 0 1 9 10.52v3a1.17 1.17 0 0 1-1.15 1.13zm-3.18-4.3a.18.18 0 0 0-.17.17v3a.18.18 0 0 0 .17.17h3.22a.17.17 0 0 0 .15-.23v-3a.17.17 0 0 0-.17-.17zM19.33 9h-3.18A1.17 1.17 0 0 1 15 7.85V4.67a1.17 1.17 0 0 1 1.15-1.17h3.18a1.17 1.17 0 0 1 1.17 1.17v3.18A1.17 1.17 0 0 1 19.33 9zm-3.18-4.5a.16.16 0 0 0-.17.17v3.18a.16.16 0 0 0 .17.17h3.18a.17.17 0 0 0 .17-.17V4.67a.17.17 0 0 0-.17-.17zM13.48 9h-3a1.17 1.17 0 0 1-1.13-1.15V4.67a1.17 1.17 0 0 1 1.17-1.17h3a1.17 1.17 0 0 1 1.17 1.17v3.18A1.17 1.17 0 0 1 13.48 9zm-3-4.52a.17.17 0 0 0-.17.17v3.2a.17.17 0 0 0 .17.17h3a.17.17 0 0 0 .17-.17V4.67a.17.17 0 0 0-.17-.17zM7.85 9H4.67A1.17 1.17 0 0 1 3.5 7.85V4.67A1.17 1.17 0 0 1 4.67 3.5h3.18A1.17 1.17 0 0 1 9 4.67v3.18A1.17 1.17 0 0 1 7.85 9zM4.67 4.5a.17.17 0 0 0-.17.17v3.18a.17.17 0 0 0 .17.15h3.18A.16.16 0 0 0 8 7.85V4.67a.16.16 0 0 0-.17-.17z" />
</svg>
